<svg width="350" height="233" viewBox="0 0 350 233" fill="none" xmlns="http://www.w3.org/2000/svg">
<g clip-path="url(#clip0)">
<path d="M125.545 133.863C137.54 112.763 160.42 96.5621 184.64 98.1229C166.774 117.551 156.357 142.672 155.23 169.042C154.832 179.213 155.449 190.567 148.695 198.183C144.493 202.922 138.07 205.217 131.755 205.699C125.44 206.18 119.126 205.039 112.895 203.903L111.383 204.367C110.808 180.103 113.551 154.963 125.545 133.863Z" fill="#F0F0F0"/>
<path d="M184.676 98.6309C166.765 107.253 151.493 121.653 142.118 139.215C140.091 143.012 138.366 147.04 137.613 151.298C136.86 155.559 137.386 159.615 138.841 163.662C140.172 167.362 141.961 170.992 142.369 174.95C142.799 179.123 141.264 183.024 138.5 186.121C135.119 189.909 130.578 192.257 126.057 194.398C121.038 196.776 115.787 199.166 112.233 203.604C111.802 204.141 110.993 203.442 111.423 202.905C117.608 195.184 128.195 193.733 135.536 187.513C138.962 184.611 141.534 180.659 141.372 176.029C141.23 171.979 139.388 168.234 138.008 164.5C136.56 160.579 135.837 156.636 136.357 152.456C136.888 148.179 138.46 144.076 140.381 140.244C144.713 131.601 150.642 123.667 157.433 116.809C165.239 108.925 174.335 102.435 184.329 97.6186C184.948 97.3208 185.29 98.335 184.676 98.6309Z" fill="white"/>
<path d="M144.864 133.346C142.119 131.338 140.176 128.42 139.383 125.112C138.591 121.804 139 118.322 140.537 115.288C140.85 114.675 141.817 115.133 141.504 115.747C140.067 118.569 139.686 121.813 140.431 124.892C141.175 127.97 142.996 130.682 145.563 132.536C146.121 132.939 145.419 133.747 144.864 133.346Z" fill="white"/>
<path d="M137.919 161.875C144.8 160.87 151.048 157.308 155.419 151.9C155.852 151.364 156.661 152.064 156.229 152.599C151.67 158.218 145.16 161.911 137.998 162.942C137.315 163.04 137.24 161.972 137.919 161.875V161.875Z" fill="white"/>
<path d="M165.767 110.241C166.668 111.24 167.802 111.999 169.068 112.45C170.335 112.901 171.693 113.031 173.022 112.828C173.703 112.722 173.777 113.789 173.101 113.895C171.631 114.113 170.131 113.967 168.731 113.472C167.331 112.976 166.073 112.145 165.068 111.051C164.965 110.956 164.902 110.825 164.891 110.685C164.881 110.545 164.925 110.406 165.013 110.297C165.106 110.19 165.237 110.124 165.379 110.114C165.52 110.104 165.66 110.149 165.767 110.241Z" fill="white"/>
<path d="M232.831 164.685C232.407 164.763 231.984 164.842 231.557 164.929C225.869 166.013 220.28 167.559 214.843 169.549C214.42 169.696 213.994 169.851 213.576 170.01C200.528 174.945 188.51 182.258 178.133 191.58C174.006 195.293 170.169 199.314 166.653 203.61C161.797 209.542 157.005 216.36 150.66 220.228C150.003 220.639 149.32 221.009 148.617 221.336L112.067 206.175C112.001 206.099 111.931 206.031 111.865 205.954L110.378 205.416C110.544 205.182 110.721 204.942 110.887 204.708C110.982 204.572 111.086 204.439 111.182 204.303C111.248 204.213 111.315 204.123 111.37 204.039C111.392 204.009 111.414 203.979 111.433 203.957C111.487 203.872 111.547 203.799 111.598 203.723C112.584 202.382 113.582 201.047 114.59 199.715C114.593 199.707 114.593 199.707 114.605 199.702C122.314 189.578 130.935 180.008 140.735 172.051C141.03 171.811 141.328 171.564 141.64 171.331C146.077 167.769 150.798 164.576 155.756 161.783C158.475 160.262 161.27 158.88 164.129 157.642C171.523 154.457 179.372 152.456 187.388 151.71C203.369 150.226 219.646 153.869 231.902 163.909C232.215 164.166 232.521 164.419 232.831 164.685Z" fill="#F0F0F0"/>
<path d="M232.556 165.115C213.064 161.216 192.201 163.518 174.142 171.896C170.238 173.707 166.435 175.884 163.27 178.832C160.103 181.78 158.081 185.335 156.807 189.443C155.641 193.198 154.884 197.173 152.827 200.58C150.658 204.17 147.083 206.361 143.012 207.169C138.032 208.159 132.993 207.299 128.094 206.287C122.655 205.164 117.024 203.911 111.513 205.314C110.846 205.484 110.621 204.438 111.288 204.268C120.874 201.827 130.201 207.043 139.808 206.497C144.29 206.242 148.723 204.635 151.381 200.84C153.706 197.522 154.49 193.422 155.637 189.61C156.841 185.607 158.638 182.025 161.57 179C164.569 175.905 168.295 173.575 172.136 171.671C180.798 167.38 190.308 164.614 199.86 163.227C210.839 161.632 222.01 161.926 232.889 164.098C233.562 164.233 233.225 165.248 232.556 165.115V165.115Z" fill="white"/>
<path d="M179.868 168.863C178.885 165.607 179.091 162.107 180.449 158.989C181.808 155.871 184.231 153.337 187.285 151.84C187.904 151.539 188.401 152.487 187.781 152.788C184.934 154.177 182.677 156.537 181.418 159.444C180.159 162.35 179.98 165.611 180.914 168.637C181.116 169.295 180.069 169.517 179.868 168.863Z" fill="white"/>
<path d="M157.146 187.461C163.245 190.801 170.379 191.719 177.124 190.033C177.792 189.865 178.017 190.911 177.35 191.078C170.327 192.82 162.905 191.849 156.567 188.36C155.963 188.027 156.546 187.13 157.146 187.461Z" fill="white"/>
<path d="M210.468 163.001C210.586 164.34 211.035 165.629 211.774 166.752C212.514 167.875 213.52 168.796 214.704 169.434C215.311 169.759 214.728 170.656 214.124 170.333C212.82 169.622 211.709 168.603 210.89 167.364C210.07 166.125 209.566 164.705 209.423 163.226C209.397 163.088 209.426 162.946 209.502 162.828C209.578 162.709 209.696 162.625 209.833 162.591C209.971 162.562 210.116 162.588 210.235 162.665C210.354 162.742 210.438 162.862 210.468 163.001Z" fill="white"/>
<path d="M163.204 189.697C158.085 164.947 151.687 156.695 151.687 156.695L149.243 154.799L146.303 152.516L146.317 152.222L145.62 151.985L145.456 151.858L145.188 151.652L145.145 151.698L145.053 151.793L131.751 147.271L114.876 141.539L107.061 131.382C105.788 129.727 104.15 128.39 102.274 127.475C100.398 126.56 98.3356 126.092 96.2484 126.107L71.2912 126.292C67.9167 126.317 64.6736 127.604 62.1994 129.898L45.7954 145.114L20.2348 157.322L20.1917 157.279L19.9233 157.471L15.9739 159.359L16.1369 160.207L13.6925 161.971C13.6925 161.971 7.294 169.649 2.17516 192.679C0.872987 198.539 0.232009 211.109 0.000650166 226.599C-0.010971 227.383 0.1333 228.161 0.42507 228.888C0.716841 229.615 1.15029 230.278 1.70022 230.836C2.25015 231.394 2.90558 231.838 3.62841 232.14C4.35124 232.443 5.12704 232.599 5.91071 232.599H142.435V232.599H159.475C160.258 232.599 161.033 232.443 161.756 232.141C162.478 231.838 163.133 231.395 163.683 230.838C164.233 230.28 164.666 229.619 164.958 228.892C165.251 228.166 165.396 227.388 165.385 226.605C165.159 209.75 164.518 196.052 163.204 189.697Z" fill="#3F3D56"/>
<path d="M180.721 21.5843C175.409 21.5843 170.315 23.6944 166.559 27.4502C162.804 31.2061 160.694 36.3001 160.694 41.6117C160.694 46.9233 162.804 52.0174 166.559 55.7732C170.315 59.5291 175.409 61.6391 180.721 61.6391H329.973C335.284 61.6391 340.378 59.5291 344.134 55.7732C347.89 52.0174 350 46.9233 350 41.6117C350 36.3001 347.89 31.2061 344.134 27.4502C340.378 23.6944 335.284 21.5843 329.973 21.5843H180.721Z" fill="#E5E5E5"/>
<path d="M180.721 25.6375C176.484 25.6375 172.421 27.3205 169.426 30.3162C166.43 33.312 164.747 37.3751 164.747 41.6117C164.747 45.8484 166.43 49.9115 169.426 52.9072C172.421 55.903 176.484 57.586 180.721 57.586H329.973C334.209 57.586 338.272 55.903 341.268 52.9072C344.264 49.9115 345.947 45.8484 345.947 41.6117C345.947 37.3751 344.264 33.312 341.268 30.3162C338.272 27.3205 334.209 25.6375 329.973 25.6375H180.721Z" fill="white"/>
<path d="M87.6893 116.732C105.747 116.732 120.386 102.093 120.386 84.0352C120.386 65.9774 105.747 51.3387 87.6893 51.3387C69.6316 51.3387 54.9929 65.9774 54.9929 84.0352C54.9929 102.093 69.6316 116.732 87.6893 116.732Z" fill="#9E616A"/>
<path d="M79.3246 115.131C79.1849 114.823 79.0456 114.514 78.9067 114.205C78.9603 114.206 79.0133 114.214 79.0668 114.216L79.3246 115.131Z" fill="#2F2E41"/>
<path d="M54.0835 52.8256C55.7372 51.5064 57.6699 50.2926 59.7843 50.3608C61.8985 50.429 64.0425 52.3386 63.6045 54.4081C67.488 47.532 73.6694 42.2435 81.0637 39.4708C88.458 36.6982 96.5926 36.6186 104.04 39.246C109.295 41.1 114.448 44.809 115.655 50.249C115.965 51.6455 116.031 53.1767 116.903 54.3107C118.003 55.7404 120.106 56.0638 121.838 55.5609C121.855 55.5559 121.873 55.5508 121.89 55.5456C122.182 55.4457 122.498 55.4359 122.797 55.5174C123.095 55.5989 123.362 55.7681 123.563 56.003C123.764 56.2379 123.89 56.5277 123.924 56.8349C123.959 57.1422 123.9 57.4527 123.757 57.7264L122.27 60.4994C124.144 60.9172 126.091 60.8757 127.946 60.3787C128.254 60.2978 128.58 60.3143 128.878 60.4259C129.177 60.5374 129.433 60.7386 129.613 61.0017C129.792 61.2648 129.886 61.577 129.881 61.8955C129.876 62.214 129.773 62.5232 129.585 62.7807C124.683 69.5119 116.492 73.8585 108.133 73.8074C102.192 73.7712 96.1904 71.7237 90.4087 73.0899C88.1719 73.6184 86.0819 74.641 84.2919 76.0826C82.502 77.5242 81.0574 79.3483 80.0644 81.4209C79.0713 83.4936 78.5548 85.7624 78.5529 88.0607C78.551 90.359 79.0637 92.6286 80.0534 94.7029C78.2772 92.7602 74.8437 93.2201 73.0268 95.1249C71.2099 97.0298 70.7396 99.8728 70.9227 102.499C71.2026 106.515 72.7762 110.3 74.4352 113.983C60.5265 113.545 47.3711 103.789 42.943 90.5923C38.4964 77.3408 43.1566 61.5423 54.0835 52.8256Z" fill="#2F2E41"/>
<path opacity="0.2" d="M32.1816 182.225L41.3522 232.12L46.8548 232.599L32.1816 182.225Z" fill="black"/>
<path opacity="0.2" d="M133.198 178.462L124.027 232.084L118.525 232.599L133.198 178.462Z" fill="black"/>
<path d="M61.9053 36.0334C60.147 36.7676 58.3122 35.9629 57.5427 34.1202C56.7615 32.2493 57.4912 30.3501 59.2777 29.6041C61.0644 28.8581 62.8664 29.6647 63.6603 31.5657C64.4422 33.4383 63.7205 35.2754 61.9053 36.0334ZM58.5371 25.9216L57.139 26.5054C56.7897 26.6495 56.3991 26.6572 56.0444 26.5271C55.6897 26.397 55.3967 26.1385 55.2234 25.8028L55.1543 25.6675C53.65 22.9545 53.4777 19.6573 54.6451 15.8725C55.7264 12.4774 56.1756 10.0897 55.2723 7.92646C54.228 5.4254 51.9979 4.64194 49.154 5.77687C48.0511 6.23744 47.7001 6.2301 46.8321 7.09116C46.6433 7.28074 46.4182 7.43036 46.1703 7.53109C45.9225 7.63181 45.6568 7.68159 45.3893 7.67746C45.1307 7.67441 44.8753 7.61932 44.6384 7.51546C44.4016 7.41159 44.188 7.26109 44.0106 7.07293C43.6687 6.71031 43.4772 6.23146 43.4746 5.7331C43.4721 5.23473 43.6588 4.75398 43.997 4.38793C45.456 2.86069 47.2157 1.65244 49.165 0.839445C55.2753 -1.71198 58.3512 2.05483 59.7588 5.42577C61.1356 8.72293 60.3611 11.7821 59.1167 15.7441C58.0739 19.0363 58.1347 21.4758 59.3192 23.9013C59.4047 24.0847 59.4523 24.2835 59.4591 24.4857C59.4659 24.6879 59.4317 24.8894 59.3587 25.0781C59.2856 25.2668 59.1752 25.4388 59.034 25.5837C58.8928 25.7287 58.7238 25.8436 58.5371 25.9216L58.5371 25.9216Z" fill="#6C63FF"/>
<path d="M213.689 51.1634H183.993C183.899 51.1641 183.805 51.146 183.718 51.1104C183.631 51.0747 183.551 51.0221 183.484 50.9557C183.417 50.8892 183.364 50.8101 183.328 50.723C183.292 50.6359 183.273 50.5425 183.273 50.4482C183.273 50.3538 183.292 50.2604 183.328 50.1733C183.364 50.0862 183.417 50.0071 183.484 49.9407C183.551 49.8742 183.631 49.8216 183.718 49.7859C183.805 49.7503 183.899 49.7323 183.993 49.7329H213.689C213.878 49.7342 214.058 49.8101 214.191 49.9441C214.324 50.0781 214.399 50.2593 214.399 50.4482C214.399 50.637 214.324 50.8182 214.191 50.9522C214.058 51.0862 213.878 51.1621 213.689 51.1634Z" fill="#6C63FF"/>
<path d="M251.359 51.4018H221.664C221.569 51.4025 221.476 51.3845 221.389 51.3488C221.301 51.3131 221.222 51.2605 221.155 51.1941C221.088 51.1276 221.035 51.0485 220.999 50.9614C220.962 50.8743 220.944 50.7809 220.944 50.6866C220.944 50.5922 220.962 50.4988 220.999 50.4117C221.035 50.3246 221.088 50.2455 221.155 50.1791C221.222 50.1126 221.301 50.06 221.389 50.0243C221.476 49.9887 221.569 49.9707 221.664 49.9713H251.359C251.454 49.9707 251.547 49.9887 251.635 50.0243C251.722 50.06 251.801 50.1126 251.868 50.1791C251.935 50.2455 251.988 50.3246 252.025 50.4117C252.061 50.4988 252.079 50.5922 252.079 50.6866C252.079 50.7809 252.061 50.8743 252.025 50.9614C251.988 51.0485 251.935 51.1276 251.868 51.1941C251.801 51.2605 251.722 51.3131 251.635 51.3488C251.547 51.3845 251.454 51.4025 251.359 51.4018Z" fill="#6C63FF"/>
<path d="M289.03 51.6402H259.334C259.145 51.639 258.965 51.563 258.832 51.429C258.698 51.295 258.624 51.1138 258.624 50.925C258.624 50.7361 258.698 50.5549 258.832 50.4209C258.965 50.2869 259.145 50.211 259.334 50.2097H289.03C289.124 50.2091 289.218 50.2271 289.305 50.2628C289.392 50.2984 289.472 50.351 289.539 50.4175C289.606 50.484 289.659 50.563 289.695 50.6501C289.731 50.7372 289.75 50.8306 289.75 50.925C289.75 51.0193 289.731 51.1127 289.695 51.1998C289.659 51.2869 289.606 51.366 289.539 51.4325C289.472 51.499 289.392 51.5515 289.305 51.5872C289.218 51.6229 289.124 51.6409 289.03 51.6402H289.03Z" fill="#6C63FF"/>
<path d="M326.7 51.8787H297.005C296.816 51.8774 296.635 51.8014 296.502 51.6675C296.369 51.5335 296.294 51.3523 296.294 51.1634C296.294 50.9745 296.369 50.7933 296.502 50.6593C296.635 50.5253 296.816 50.4494 297.005 50.4481H326.7C326.889 50.4494 327.07 50.5253 327.203 50.6593C327.336 50.7933 327.411 50.9745 327.411 51.1634C327.411 51.3523 327.336 51.5335 327.203 51.6675C327.07 51.8014 326.889 51.8774 326.7 51.8787Z" fill="#6C63FF"/>
<path d="M198.776 44.5807C201.824 44.5807 204.295 42.1097 204.295 39.0616C204.295 36.0135 201.824 33.5425 198.776 33.5425C195.728 33.5425 193.257 36.0135 193.257 39.0616C193.257 42.1097 195.728 44.5807 198.776 44.5807Z" fill="#6C63FF"/>
<path d="M236.674 44.5807C239.722 44.5807 242.193 42.1097 242.193 39.0616C242.193 36.0135 239.722 33.5425 236.674 33.5425C233.626 33.5425 231.155 36.0135 231.155 39.0616C231.155 42.1097 233.626 44.5807 236.674 44.5807Z" fill="#6C63FF"/>
<path d="M274.572 44.5807C277.62 44.5807 280.091 42.1097 280.091 39.0616C280.091 36.0135 277.62 33.5425 274.572 33.5425C271.524 33.5425 269.053 36.0135 269.053 39.0616C269.053 42.1097 271.524 44.5807 274.572 44.5807Z" fill="#6C63FF"/>
<path d="M312.47 44.5807C315.518 44.5807 317.989 42.1097 317.989 39.0616C317.989 36.0135 315.518 33.5425 312.47 33.5425C309.422 33.5425 306.951 36.0135 306.951 39.0616C306.951 42.1097 309.422 44.5807 312.47 44.5807Z" fill="#6C63FF"/>
</g>
<defs>
<clipPath id="clip0">
<rect width="350" height="232.599" fill="white"/>
</clipPath>
</defs>
</svg>
