<svg width="399" height="176" viewBox="0 0 399 176" fill="none" xmlns="http://www.w3.org/2000/svg">
<rect width="399" height="176" rx="5" fill="#F0F0F0"/>
<path d="M141.111 83H139.666V74.5469H141.111V83ZM139.548 72.3047C139.548 72.0703 139.619 71.8724 139.759 71.7109C139.905 71.5495 140.119 71.4688 140.4 71.4688C140.681 71.4688 140.895 71.5495 141.041 71.7109C141.186 71.8724 141.259 72.0703 141.259 72.3047C141.259 72.5391 141.186 72.7344 141.041 72.8906C140.895 73.0469 140.681 73.125 140.4 73.125C140.119 73.125 139.905 73.0469 139.759 72.8906C139.619 72.7344 139.548 72.5391 139.548 72.3047ZM146.391 74.5469L146.43 75.4844C147.049 74.7552 147.885 74.3906 148.938 74.3906C150.12 74.3906 150.924 74.8438 151.352 75.75C151.633 75.3438 151.997 75.0156 152.445 74.7656C152.898 74.5156 153.432 74.3906 154.047 74.3906C155.901 74.3906 156.844 75.3724 156.875 77.3359V83H155.43V77.4219C155.43 76.8177 155.292 76.3672 155.016 76.0703C154.74 75.7682 154.276 75.6172 153.625 75.6172C153.089 75.6172 152.643 75.7786 152.289 76.1016C151.935 76.4193 151.729 76.849 151.672 77.3906V83H150.219V77.4609C150.219 76.2318 149.617 75.6172 148.414 75.6172C147.466 75.6172 146.818 76.0208 146.469 76.8281V83H145.023V74.5469H146.391ZM165.881 83C165.798 82.8333 165.73 82.5365 165.678 82.1094C165.006 82.8073 164.204 83.1562 163.272 83.1562C162.439 83.1562 161.754 82.9219 161.217 82.4531C160.686 81.9792 160.42 81.3802 160.42 80.6562C160.42 79.776 160.754 79.0938 161.42 78.6094C162.092 78.1198 163.035 77.875 164.248 77.875H165.655V77.2109C165.655 76.7057 165.504 76.3047 165.202 76.0078C164.899 75.7057 164.454 75.5547 163.866 75.5547C163.35 75.5547 162.918 75.6849 162.569 75.9453C162.22 76.2057 162.045 76.5208 162.045 76.8906H160.592C160.592 76.4688 160.741 76.0625 161.038 75.6719C161.34 75.276 161.746 74.9635 162.256 74.7344C162.772 74.5052 163.337 74.3906 163.952 74.3906C164.926 74.3906 165.689 74.6354 166.241 75.125C166.793 75.6094 167.079 76.2786 167.1 77.1328V81.0234C167.1 81.7995 167.199 82.4167 167.397 82.875V83H165.881ZM163.483 81.8984C163.936 81.8984 164.366 81.7812 164.772 81.5469C165.178 81.3125 165.472 81.0078 165.655 80.6328V78.8984H164.522C162.751 78.8984 161.866 79.4167 161.866 80.4531C161.866 80.9062 162.017 81.2604 162.319 81.5156C162.621 81.7708 163.009 81.8984 163.483 81.8984ZM170.622 78.7031C170.622 77.3854 170.927 76.3385 171.536 75.5625C172.145 74.7812 172.953 74.3906 173.958 74.3906C174.989 74.3906 175.794 74.7552 176.372 75.4844L176.442 74.5469H177.763V82.7969C177.763 83.8906 177.437 84.7526 176.786 85.3828C176.14 86.013 175.27 86.3281 174.177 86.3281C173.567 86.3281 172.971 86.1979 172.388 85.9375C171.804 85.6771 171.359 85.3203 171.052 84.8672L171.802 84C172.421 84.7656 173.179 85.1484 174.075 85.1484C174.778 85.1484 175.325 84.9505 175.716 84.5547C176.111 84.1589 176.309 83.6016 176.309 82.8828V82.1562C175.731 82.8229 174.942 83.1562 173.942 83.1562C172.953 83.1562 172.151 82.7578 171.536 81.9609C170.927 81.1641 170.622 80.0781 170.622 78.7031ZM172.075 78.8672C172.075 79.8203 172.27 80.5703 172.661 81.1172C173.052 81.6589 173.598 81.9297 174.302 81.9297C175.213 81.9297 175.882 81.5156 176.309 80.6875V76.8281C175.867 76.0208 175.203 75.6172 174.317 75.6172C173.614 75.6172 173.065 75.8906 172.669 76.4375C172.273 76.9844 172.075 77.7943 172.075 78.8672ZM185.058 83.1562C183.912 83.1562 182.98 82.7812 182.261 82.0312C181.542 81.276 181.183 80.2682 181.183 79.0078V78.7422C181.183 77.9036 181.342 77.1562 181.659 76.5C181.982 75.8385 182.43 75.3229 183.003 74.9531C183.581 74.5781 184.206 74.3906 184.878 74.3906C185.977 74.3906 186.831 74.7526 187.441 75.4766C188.05 76.2005 188.355 77.237 188.355 78.5859V79.1875H182.628C182.649 80.0208 182.891 80.6953 183.355 81.2109C183.823 81.7214 184.417 81.9766 185.136 81.9766C185.646 81.9766 186.079 81.8724 186.433 81.6641C186.787 81.4557 187.097 81.1797 187.363 80.8359L188.245 81.5234C187.537 82.612 186.474 83.1562 185.058 83.1562ZM184.878 75.5781C184.295 75.5781 183.805 75.7917 183.409 76.2188C183.014 76.6406 182.769 77.2344 182.675 78H186.909V77.8906C186.868 77.1562 186.67 76.5885 186.316 76.1875C185.961 75.7812 185.482 75.5781 184.878 75.5781ZM204.344 78.8672C204.344 80.1536 204.049 81.1901 203.461 81.9766C202.872 82.763 202.076 83.1562 201.07 83.1562C200.044 83.1562 199.237 82.8307 198.648 82.1797V86.25H197.203V74.5469H198.523L198.594 75.4844C199.182 74.7552 200 74.3906 201.047 74.3906C202.062 74.3906 202.865 74.7734 203.453 75.5391C204.047 76.3047 204.344 77.3698 204.344 78.7344V78.8672ZM202.898 78.7031C202.898 77.75 202.695 76.9974 202.289 76.4453C201.883 75.8932 201.326 75.6172 200.617 75.6172C199.742 75.6172 199.086 76.0052 198.648 76.7812V80.8203C199.081 81.5911 199.742 81.9766 200.633 81.9766C201.326 81.9766 201.875 81.7031 202.281 81.1562C202.693 80.6042 202.898 79.7865 202.898 78.7031ZM211.873 75.8438C211.655 75.8073 211.418 75.7891 211.162 75.7891C210.215 75.7891 209.571 76.1927 209.233 77V83H207.787V74.5469H209.194L209.217 75.5234C209.691 74.7682 210.363 74.3906 211.233 74.3906C211.514 74.3906 211.728 74.4271 211.873 74.5V75.8438ZM214.27 78.6953C214.27 77.8672 214.432 77.1224 214.755 76.4609C215.083 75.7995 215.536 75.2891 216.114 74.9297C216.697 74.5703 217.361 74.3906 218.106 74.3906C219.257 74.3906 220.187 74.7891 220.895 75.5859C221.609 76.3828 221.966 77.4427 221.966 78.7656V78.8672C221.966 79.6901 221.807 80.4297 221.489 81.0859C221.177 81.737 220.726 82.2448 220.138 82.6094C219.554 82.974 218.882 83.1562 218.122 83.1562C216.976 83.1562 216.046 82.7578 215.333 81.9609C214.624 81.1641 214.27 80.1094 214.27 78.7969V78.6953ZM215.723 78.8672C215.723 79.8047 215.94 80.5573 216.372 81.125C216.809 81.6927 217.393 81.9766 218.122 81.9766C218.856 81.9766 219.44 81.6901 219.872 81.1172C220.304 80.5391 220.52 79.7318 220.52 78.6953C220.52 77.7682 220.299 77.0182 219.856 76.4453C219.419 75.8672 218.835 75.5781 218.106 75.5781C217.393 75.5781 216.817 75.862 216.38 76.4297C215.942 76.9974 215.723 77.8099 215.723 78.8672ZM225.027 78.7031C225.027 77.4062 225.334 76.3646 225.948 75.5781C226.563 74.7865 227.368 74.3906 228.363 74.3906C229.352 74.3906 230.136 74.7292 230.714 75.4062V71H232.159V83H230.831L230.761 82.0938C230.183 82.8021 229.378 83.1562 228.347 83.1562C227.368 83.1562 226.568 82.7552 225.948 81.9531C225.334 81.151 225.027 80.1042 225.027 78.8125V78.7031ZM226.472 78.8672C226.472 79.8255 226.67 80.5755 227.066 81.1172C227.461 81.6589 228.008 81.9297 228.706 81.9297C229.623 81.9297 230.292 81.5182 230.714 80.6953V76.8125C230.282 76.0156 229.618 75.6172 228.722 75.6172C228.014 75.6172 227.461 75.8906 227.066 76.4375C226.67 76.9844 226.472 77.7943 226.472 78.8672ZM241.228 82.1641C240.666 82.8255 239.84 83.1562 238.752 83.1562C237.851 83.1562 237.163 82.8958 236.689 82.375C236.22 81.849 235.983 81.0729 235.978 80.0469V74.5469H237.423V80.0078C237.423 81.2891 237.944 81.9297 238.986 81.9297C240.09 81.9297 240.824 81.5182 241.189 80.6953V74.5469H242.634V83H241.259L241.228 82.1641ZM249.828 81.9766C250.344 81.9766 250.794 81.8203 251.18 81.5078C251.565 81.1953 251.779 80.8047 251.82 80.3359H253.188C253.161 80.8203 252.995 81.2812 252.688 81.7188C252.38 82.1562 251.969 82.5052 251.453 82.7656C250.943 83.026 250.401 83.1562 249.828 83.1562C248.677 83.1562 247.76 82.7734 247.078 82.0078C246.401 81.237 246.062 80.1849 246.062 78.8516V78.6094C246.062 77.7865 246.214 77.0547 246.516 76.4141C246.818 75.7734 247.25 75.276 247.812 74.9219C248.38 74.5677 249.049 74.3906 249.82 74.3906C250.768 74.3906 251.555 74.6745 252.18 75.2422C252.81 75.8099 253.146 76.5469 253.188 77.4531H251.82C251.779 76.9062 251.57 76.4583 251.195 76.1094C250.826 75.7552 250.367 75.5781 249.82 75.5781C249.086 75.5781 248.516 75.8438 248.109 76.375C247.708 76.901 247.508 77.6641 247.508 78.6641V78.9375C247.508 79.9115 247.708 80.6615 248.109 81.1875C248.51 81.7135 249.083 81.9766 249.828 81.9766ZM258.373 72.5V74.5469H259.952V75.6641H258.373V80.9062C258.373 81.2448 258.444 81.5 258.584 81.6719C258.725 81.8385 258.965 81.9219 259.303 81.9219C259.47 81.9219 259.699 81.8906 259.991 81.8281V83C259.61 83.1042 259.241 83.1562 258.881 83.1562C258.235 83.1562 257.748 82.9609 257.42 82.5703C257.092 82.1797 256.928 81.625 256.928 80.9062V75.6641H255.389V74.5469H256.928V72.5H258.373ZM153.32 102H151.867V92.3672L148.953 93.4375V92.125L153.094 90.5703H153.32V102ZM166.288 97.1484C166.288 98.8411 165.998 100.099 165.42 100.922C164.842 101.745 163.939 102.156 162.709 102.156C161.496 102.156 160.597 101.755 160.014 100.953C159.431 100.146 159.129 98.9427 159.108 97.3438V95.4141C159.108 93.7422 159.397 92.5 159.975 91.6875C160.553 90.875 161.459 90.4688 162.694 90.4688C163.918 90.4688 164.819 90.862 165.397 91.6484C165.975 92.4297 166.272 93.638 166.288 95.2734V97.1484ZM164.842 95.1719C164.842 93.9479 164.67 93.0573 164.327 92.5C163.983 91.9375 163.439 91.6562 162.694 91.6562C161.954 91.6562 161.415 91.9349 161.077 92.4922C160.738 93.0495 160.564 93.9062 160.553 95.0625V97.375C160.553 98.6042 160.73 99.513 161.084 100.102C161.444 100.685 161.985 100.977 162.709 100.977C163.423 100.977 163.952 100.701 164.295 100.148C164.644 99.5964 164.827 98.7266 164.842 97.5391V95.1719ZM176.638 93.5938C176.638 94.1615 176.486 94.6667 176.184 95.1094C175.888 95.5521 175.484 95.8984 174.973 96.1484C175.567 96.4036 176.036 96.776 176.38 97.2656C176.729 97.7552 176.903 98.3099 176.903 98.9297C176.903 99.9141 176.57 100.698 175.903 101.281C175.242 101.865 174.369 102.156 173.286 102.156C172.192 102.156 171.315 101.865 170.653 101.281C169.997 100.693 169.669 99.9089 169.669 98.9297C169.669 98.3151 169.835 97.7604 170.169 97.2656C170.507 96.7708 170.973 96.3958 171.567 96.1406C171.062 95.8906 170.664 95.5443 170.372 95.1016C170.08 94.6589 169.934 94.1562 169.934 93.5938C169.934 92.6354 170.242 91.875 170.856 91.3125C171.471 90.75 172.281 90.4688 173.286 90.4688C174.286 90.4688 175.093 90.75 175.708 91.3125C176.328 91.875 176.638 92.6354 176.638 93.5938ZM175.458 98.8984C175.458 98.263 175.255 97.7448 174.848 97.3438C174.447 96.9427 173.921 96.7422 173.27 96.7422C172.619 96.7422 172.096 96.9401 171.7 97.3359C171.309 97.7318 171.114 98.2526 171.114 98.8984C171.114 99.5443 171.304 100.052 171.684 100.422C172.07 100.792 172.604 100.977 173.286 100.977C173.963 100.977 174.494 100.792 174.88 100.422C175.265 100.047 175.458 99.5391 175.458 98.8984ZM173.286 91.6562C172.718 91.6562 172.257 91.8333 171.903 92.1875C171.554 92.5365 171.38 93.013 171.38 93.6172C171.38 94.1953 171.552 94.6641 171.895 95.0234C172.244 95.3776 172.708 95.5547 173.286 95.5547C173.864 95.5547 174.325 95.3776 174.669 95.0234C175.018 94.6641 175.192 94.1953 175.192 93.6172C175.192 93.0391 175.013 92.5677 174.653 92.2031C174.294 91.8385 173.838 91.6562 173.286 91.6562ZM187.456 97.1484C187.456 98.8411 187.167 100.099 186.589 100.922C186.011 101.745 185.107 102.156 183.878 102.156C182.665 102.156 181.766 101.755 181.183 100.953C180.599 100.146 180.297 98.9427 180.277 97.3438V95.4141C180.277 93.7422 180.566 92.5 181.144 91.6875C181.722 90.875 182.628 90.4688 183.862 90.4688C185.086 90.4688 185.987 90.862 186.566 91.6484C187.144 92.4297 187.441 93.638 187.456 95.2734V97.1484ZM186.011 95.1719C186.011 93.9479 185.839 93.0573 185.495 92.5C185.152 91.9375 184.607 91.6562 183.862 91.6562C183.123 91.6562 182.584 91.9349 182.245 92.4922C181.907 93.0495 181.732 93.9062 181.722 95.0625V97.375C181.722 98.6042 181.899 99.513 182.253 100.102C182.612 100.685 183.154 100.977 183.878 100.977C184.592 100.977 185.12 100.701 185.464 100.148C185.813 99.5964 185.995 98.7266 186.011 97.5391V95.1719ZM199.461 96.6328L201.336 93.5469H203.023L200.258 97.7266L203.109 102H201.438L199.484 98.8359L197.531 102H195.852L198.703 97.7266L195.938 93.5469H197.609L199.461 96.6328ZM216.333 102H214.88V92.3672L211.966 93.4375V92.125L216.106 90.5703H216.333V102ZM227.706 97C227.404 97.3594 227.042 97.6484 226.62 97.8672C226.204 98.0859 225.745 98.1953 225.245 98.1953C224.589 98.1953 224.016 98.0339 223.527 97.7109C223.042 97.388 222.667 96.9349 222.402 96.3516C222.136 95.763 222.003 95.1146 222.003 94.4062C222.003 93.6458 222.146 92.9609 222.433 92.3516C222.724 91.7422 223.136 91.276 223.667 90.9531C224.198 90.6302 224.818 90.4688 225.527 90.4688C226.652 90.4688 227.537 90.8906 228.183 91.7344C228.834 92.5729 229.159 93.7188 229.159 95.1719V95.5938C229.159 97.8073 228.722 99.4245 227.847 100.445C226.972 101.461 225.652 101.982 223.886 102.008H223.605V100.789H223.909C225.102 100.768 226.019 100.458 226.659 99.8594C227.3 99.2552 227.649 98.3021 227.706 97ZM225.48 97C225.964 97 226.409 96.8516 226.816 96.5547C227.227 96.2578 227.527 95.8906 227.714 95.4531V94.875C227.714 93.9271 227.508 93.1562 227.097 92.5625C226.685 91.9688 226.165 91.6719 225.534 91.6719C224.899 91.6719 224.389 91.9167 224.003 92.4062C223.618 92.8906 223.425 93.5312 223.425 94.3281C223.425 95.1042 223.61 95.7448 223.98 96.25C224.355 96.75 224.855 97 225.48 97ZM240.205 102H232.752V100.961L236.689 96.5859C237.272 95.9245 237.673 95.388 237.892 94.9766C238.116 94.5599 238.228 94.1302 238.228 93.6875C238.228 93.0938 238.048 92.6068 237.689 92.2266C237.33 91.8464 236.851 91.6562 236.252 91.6562C235.533 91.6562 234.973 91.862 234.572 92.2734C234.176 92.6797 233.978 93.2474 233.978 93.9766H232.533C232.533 92.9297 232.869 92.0833 233.541 91.4375C234.218 90.7917 235.121 90.4688 236.252 90.4688C237.309 90.4688 238.145 90.7474 238.759 91.3047C239.374 91.8568 239.681 92.5938 239.681 93.5156C239.681 94.6354 238.968 95.9688 237.541 97.5156L234.494 100.82H240.205V102ZM250.469 97.1484C250.469 98.8411 250.18 100.099 249.602 100.922C249.023 101.745 248.12 102.156 246.891 102.156C245.677 102.156 244.779 101.755 244.195 100.953C243.612 100.146 243.31 98.9427 243.289 97.3438V95.4141C243.289 93.7422 243.578 92.5 244.156 91.6875C244.734 90.875 245.641 90.4688 246.875 90.4688C248.099 90.4688 249 90.862 249.578 91.6484C250.156 92.4297 250.453 93.638 250.469 95.2734V97.1484ZM249.023 95.1719C249.023 93.9479 248.852 93.0573 248.508 92.5C248.164 91.9375 247.62 91.6562 246.875 91.6562C246.135 91.6562 245.596 91.9349 245.258 92.4922C244.919 93.0495 244.745 93.9062 244.734 95.0625V97.375C244.734 98.6042 244.911 99.513 245.266 100.102C245.625 100.685 246.167 100.977 246.891 100.977C247.604 100.977 248.133 100.701 248.477 100.148C248.826 99.5964 249.008 98.7266 249.023 97.5391V95.1719Z" fill="#7E7E7E"/>
</svg>
