<svg width="350" height="244" viewBox="0 0 350 244" fill="none" xmlns="http://www.w3.org/2000/svg">
<g clip-path="url(#clip0)">
<path d="M69.7352 243.513C108.249 243.513 139.47 241.142 139.47 238.217C139.47 235.292 108.249 232.921 69.7352 232.921C31.2215 232.921 0 235.292 0 238.217C0 241.142 31.2215 243.513 69.7352 243.513Z" fill="#E6E6E6"/>
<path d="M53.3043 54.0313C65.4403 48.8695 80.5559 52.14 95.3179 54.4098C95.4553 51.661 97.1204 48.3156 95.3762 46.3979C93.2572 44.068 93.4522 41.62 94.7274 39.1579C97.9881 32.8618 93.3164 26.1625 88.5994 20.5921C87.5362 19.3394 86.1925 18.3551 84.6775 17.7192C83.1625 17.0833 81.5189 16.8138 79.8801 16.9324L71.1422 17.5566C69.016 17.7084 66.9868 18.506 65.3262 19.8427C63.6657 21.1793 62.4529 22.9912 61.8503 25.0359C59.7638 27.8735 58.6471 30.7033 59.3502 33.5183C56.2251 35.6539 55.7 38.2319 57.1043 41.1381C58.2951 42.968 58.2825 44.7492 57.0502 46.4811C55.4318 48.6891 54.1923 51.1511 53.3824 53.7662L53.3043 54.0313Z" fill="#2F2E41"/>
<path d="M341.706 210.513H94.3593C92.1596 210.513 90.0501 209.64 88.4947 208.084C86.9394 206.529 86.0656 204.419 86.0656 202.22C175.729 191.799 263.707 191.799 350 202.22C350 204.419 349.126 206.529 347.571 208.084C346.015 209.64 343.906 210.513 341.706 210.513Z" fill="#2F2E41"/>
<path d="M350 202.707L86.0656 202.22L116.655 150.75L116.801 150.506V37.0728C116.801 35.696 117.072 34.3326 117.599 33.0605C118.126 31.7885 118.898 30.6327 119.872 29.6591C120.845 28.6855 122.001 27.9133 123.273 27.3864C124.545 26.8596 125.908 26.5885 127.285 26.5886H307.317C308.694 26.5885 310.057 26.8596 311.329 27.3864C312.601 27.9133 313.757 28.6855 314.73 29.6591C315.704 30.6327 316.476 31.7885 317.003 33.0605C317.53 34.3326 317.801 35.696 317.801 37.0728V151.287L350 202.707Z" fill="#3F3D56"/>
<path d="M127.046 33.9066C126.141 33.9076 125.273 34.2677 124.632 34.9079C123.992 35.5481 123.632 36.4162 123.631 37.3216V140.749C123.632 141.654 123.992 142.522 124.633 143.162C125.273 143.803 126.141 144.163 127.046 144.164H309.019C309.925 144.163 310.793 143.803 311.433 143.162C312.073 142.522 312.433 141.654 312.434 140.749V37.3216C312.433 36.4162 312.073 35.5482 311.433 34.908C310.793 34.2678 309.925 33.9076 309.019 33.9066H127.046Z" fill="white"/>
<path d="M127.809 157.824C127.529 157.824 127.255 157.905 127.019 158.056C126.784 158.207 126.596 158.422 126.479 158.676L117.054 179.166C116.951 179.389 116.906 179.634 116.923 179.879C116.94 180.124 117.018 180.361 117.151 180.567C117.283 180.774 117.465 180.944 117.681 181.062C117.896 181.18 118.138 181.241 118.383 181.241H316.595C316.845 181.241 317.09 181.178 317.308 181.056C317.526 180.935 317.709 180.76 317.84 180.547C317.971 180.335 318.046 180.093 318.057 179.844C318.068 179.594 318.015 179.346 317.904 179.123L307.659 158.633C307.538 158.389 307.351 158.184 307.12 158.042C306.889 157.899 306.622 157.823 306.35 157.824H127.809Z" fill="#2F2E41"/>
<path d="M217.301 32.199C218.513 32.199 219.496 31.2161 219.496 30.0036C219.496 28.7912 218.513 27.8083 217.301 27.8083C216.089 27.8083 215.106 28.7912 215.106 30.0036C215.106 31.2161 216.089 32.199 217.301 32.199Z" fill="white"/>
<path d="M197.818 185.144C197.497 185.145 197.184 185.251 196.929 185.447C196.673 185.642 196.489 185.917 196.405 186.227L194.041 195.009C193.983 195.226 193.975 195.453 194.018 195.674C194.062 195.894 194.156 196.101 194.292 196.28C194.429 196.458 194.605 196.603 194.806 196.702C195.008 196.801 195.229 196.853 195.454 196.853H240.417C240.651 196.853 240.881 196.797 241.088 196.69C241.295 196.583 241.474 196.428 241.61 196.238C241.745 196.048 241.833 195.829 241.866 195.598C241.899 195.367 241.876 195.131 241.8 194.911L238.76 186.129C238.661 185.842 238.474 185.592 238.226 185.416C237.978 185.239 237.682 185.145 237.377 185.144H197.818Z" fill="#2F2E41"/>
<path d="M317.801 148.799V150.75H116.655L116.806 150.506V148.799H317.801Z" fill="#2F2E41"/>
<path d="M312.191 68.301C331.051 68.301 346.341 53.0113 346.341 34.1505C346.341 15.2897 331.051 0 312.191 0C293.33 0 278.04 15.2897 278.04 34.1505C278.04 53.0113 293.33 68.301 312.191 68.301Z" fill="#6C63FF"/>
<path d="M326.339 49.0303H298.042C297.525 49.0298 297.029 48.8241 296.663 48.4582C296.297 48.0924 296.092 47.5963 296.091 47.0789V30.0036C296.092 29.4862 296.297 28.9902 296.663 28.6244C297.029 28.2585 297.525 28.0527 298.042 28.0522H326.339C326.856 28.0527 327.352 28.2585 327.718 28.6244C328.084 28.9902 328.29 29.4862 328.29 30.0036V47.0789C328.29 47.5963 328.084 48.0924 327.718 48.4582C327.352 48.8241 326.856 49.0298 326.339 49.0303ZM298.042 30.0037V47.0789H326.34L326.339 30.0036L298.042 30.0037Z" fill="white"/>
<path d="M320.972 30.0036H303.409V22.1978C303.409 16.544 307.102 12.4405 312.191 12.4405C317.279 12.4405 320.972 16.544 320.972 22.1978L320.972 30.0036ZM305.36 28.0522H319.021V22.1978C319.021 17.6019 316.212 14.392 312.191 14.392C308.169 14.392 305.36 17.6019 305.36 22.1978L305.36 28.0522Z" fill="white"/>
<path d="M312.191 40.0048C313.268 40.0048 314.142 39.1311 314.142 38.0534C314.142 36.9756 313.268 36.1019 312.191 36.1019C311.113 36.1019 310.239 36.9756 310.239 38.0534C310.239 39.1311 311.113 40.0048 312.191 40.0048Z" fill="white"/>
<path d="M288.351 109.082H147.715C147.025 109.082 146.363 108.807 145.874 108.319C145.386 107.83 145.111 107.168 145.111 106.478V71.5923C145.111 70.9019 145.386 70.2399 145.874 69.7517C146.363 69.2634 147.025 68.9888 147.715 68.988H288.351C289.041 68.9888 289.703 69.2634 290.191 69.7517C290.679 70.2399 290.954 70.9019 290.955 71.5923V106.478C290.954 107.168 290.679 107.83 290.191 108.319C289.703 108.807 289.041 109.082 288.351 109.082ZM147.715 70.0297C147.301 70.0302 146.904 70.195 146.611 70.4879C146.318 70.7809 146.153 71.1781 146.152 71.5923V106.478C146.153 106.892 146.318 107.29 146.611 107.582C146.904 107.875 147.301 108.04 147.715 108.041H288.351C288.765 108.04 289.162 107.875 289.455 107.582C289.748 107.29 289.913 106.892 289.913 106.478V71.5923C289.913 71.178 289.748 70.7808 289.455 70.4879C289.162 70.1949 288.765 70.0302 288.351 70.0297L147.715 70.0297Z" fill="#E6E6E6"/>
<path d="M169.567 98.3054C175.426 98.3054 180.176 93.5557 180.176 87.6966C180.176 81.8375 175.426 77.0878 169.567 77.0878C163.708 77.0878 158.958 81.8375 158.958 87.6966C158.958 93.5557 163.708 98.3054 169.567 98.3054Z" fill="#E6E6E6"/>
<path d="M194.068 80.6241C193.836 80.6237 193.605 80.6692 193.391 80.7579C193.176 80.8466 192.981 80.9768 192.816 81.141C192.652 81.3052 192.521 81.5003 192.432 81.715C192.343 81.9297 192.297 82.1598 192.297 82.3922C192.297 82.6247 192.343 82.8548 192.432 83.0695C192.521 83.2842 192.652 83.4792 192.816 83.6435C192.981 83.8077 193.176 83.9379 193.391 84.0266C193.605 84.1153 193.836 84.1607 194.068 84.1604H277.423C277.892 84.1604 278.341 83.9741 278.673 83.6425C279.005 83.3109 279.191 82.8612 279.191 82.3922C279.191 81.9233 279.005 81.4736 278.673 81.142C278.341 80.8104 277.892 80.6241 277.423 80.6241H194.068Z" fill="#E6E6E6"/>
<path d="M194.068 91.2329C193.599 91.2329 193.15 91.4191 192.818 91.7507C192.486 92.0823 192.3 92.5321 192.3 93.001C192.3 93.4699 192.486 93.9197 192.818 94.2513C193.15 94.5828 193.599 94.7691 194.068 94.7691H229.936C230.405 94.7691 230.855 94.5828 231.186 94.2513C231.518 93.9197 231.704 93.4699 231.704 93.001C231.704 92.5321 231.518 92.0823 231.186 91.7507C230.855 91.4191 230.405 91.2329 229.936 91.2329H194.068Z" fill="#E6E6E6"/>
<path d="M116.309 91.9481L90.311 105.77L89.9819 94.2517C98.4673 92.8352 106.54 90.3689 114.005 86.3537L116.724 79.6362C117.02 78.9042 117.502 78.2618 118.121 77.7722C118.741 77.2825 119.477 76.9623 120.258 76.8431C121.038 76.7239 121.837 76.8098 122.574 77.0922C123.311 77.3747 123.963 77.8441 124.464 78.4543C125.197 79.347 125.564 80.4852 125.489 81.6381C125.415 82.7911 124.905 83.8727 124.063 84.6637L116.309 91.9481Z" fill="#FFB8B8"/>
<path d="M52.7861 171.748C52.5964 171.053 52.5562 170.325 52.6679 169.613C52.7797 168.9 53.041 168.22 53.4346 167.616L59.1455 158.851C60.4963 156.778 62.5689 155.281 64.9613 154.65C67.3537 154.019 69.8952 154.299 72.0928 155.436C69.6927 159.521 70.0273 163.105 72.9218 166.22C68.4285 168.413 64.2756 171.244 60.5918 174.625C59.9193 175.084 59.147 175.375 58.3392 175.475C57.5314 175.574 56.7115 175.479 55.9478 175.198C55.1842 174.916 54.4988 174.456 53.9488 173.856C53.3988 173.256 53.0002 172.534 52.7861 171.748Z" fill="#2F2E41"/>
<path d="M117.493 160.289C116.628 161.729 115.409 162.923 113.95 163.756C112.492 164.589 110.843 165.034 109.164 165.046L71.2242 165.334L69.5788 155.79L86.362 150.854L72.2115 139.994L87.6783 121.895L115.771 148.078C117.413 149.609 118.48 151.656 118.793 153.879C119.107 156.101 118.647 158.364 117.493 160.289Z" fill="#2F2E41"/>
<path d="M65.3007 225.556H56.4154C48.4377 170.872 40.3173 116.035 64.3134 95.568L92.6145 100.175L88.9946 124.198L73.1986 142.298L65.3007 225.556Z" fill="#2F2E41"/>
<path d="M73.1112 237.943C72.4157 238.133 71.6878 238.173 70.9756 238.062C70.2633 237.95 69.5828 237.689 68.9787 237.295L59.3312 235.998C57.2581 234.648 55.7606 232.575 55.1293 230.183C54.498 227.79 54.7778 225.249 55.9146 223.051C60.0002 225.451 63.5841 225.116 66.6986 222.222C68.8992 226.665 72.525 226.394 75.9877 230.137C76.4462 230.81 76.7374 231.582 76.837 232.39C76.9366 233.198 76.8417 234.018 76.5603 234.781C76.2789 235.545 75.819 236.231 75.2191 236.781C74.6191 237.331 73.8965 237.729 73.1112 237.943Z" fill="#2F2E41"/>
<path d="M86.362 59.0398L69.9078 55.0908C72.6406 49.497 72.8656 43.2728 71.5532 36.6622L82.7421 36.3331C83.0927 44.5536 84.1533 52.2337 86.362 59.0398Z" fill="#FFB8B8"/>
<path d="M90.8842 110.084C78.9062 118.246 70.4428 110.363 63.9844 98.2007C64.8818 90.7585 63.4287 81.8524 60.7374 72.1752C59.5405 67.9069 59.9873 63.3449 61.9897 59.39C63.9921 55.4351 67.4045 52.3746 71.5532 50.8127L85.7038 56.7363C97.7193 66.5302 100.084 77.1391 95.5763 88.3282L90.8842 110.084Z" fill="#6C63FF"/>
<path d="M56.4154 67.2669L43.2521 74.1776L66.617 87.9991L69.8681 96.0185C70.0851 96.5537 70.1908 97.1275 70.1787 97.705C70.1667 98.2824 70.0372 98.8513 69.7981 99.3771C69.5591 99.9028 69.2154 100.374 68.7881 100.763C68.3609 101.152 67.8589 101.449 67.3129 101.637C66.6922 101.851 66.0305 101.919 65.3794 101.834C64.7283 101.75 64.1056 101.516 63.5601 101.151C63.0145 100.785 62.5609 100.299 62.2348 99.729C61.9087 99.1592 61.719 98.5216 61.6804 97.8662L61.3517 92.2772L31.6552 82.4774C30.6546 82.1472 29.7423 81.5936 28.9874 80.8587C28.2324 80.1237 27.6546 79.2266 27.2977 78.2352C26.7775 76.7902 26.7511 75.2135 27.2225 73.7518C27.6938 72.2901 28.6365 71.026 29.9029 70.1572L53.7828 53.7745L56.4154 67.2669Z" fill="#FFB8B8"/>
<path d="M69.5788 68.5832C64.0888 66.1773 59.0967 68.7909 52.7955 70.8868L51.8083 53.4454C58.0651 50.1106 64.0305 49.2115 69.5788 51.8L69.5788 68.5832Z" fill="#6C63FF"/>
<path d="M76.1459 44.9724C81.9479 44.9724 86.6513 40.269 86.6513 34.4671C86.6513 28.6651 81.9479 23.9617 76.1459 23.9617C70.344 23.9617 65.6406 28.6651 65.6406 34.4671C65.6406 40.269 70.344 44.9724 76.1459 44.9724Z" fill="#FFB8B8"/>
<path d="M88.7137 33.1416C78.3125 34.1603 70.3869 32.4592 65.3216 27.6157V23.715H87.831L88.7137 33.1416Z" fill="#2F2E41"/>
</g>
<defs>
<clipPath id="clip0">
<rect width="350" height="243.513" fill="white"/>
</clipPath>
</defs>
</svg>
