<svg width="108" height="33" viewBox="0 0 108 33" fill="none" xmlns="http://www.w3.org/2000/svg">
<circle cx="16.3636" cy="16.3636" r="14.3636" fill="white" stroke="#1FB6F7" stroke-width="4"/>
<circle cx="30.9091" cy="16.3636" r="7.59091" stroke="white" stroke-width="3"/>
<circle cx="16.3636" cy="16.3636" r="9.09091" fill="url(#paint0_linear)"/>
<path d="M42.66 17.96C42.66 16.5733 42.96 15.34 43.56 14.26C44.16 13.1667 44.9933 12.32 46.06 11.72C47.14 11.1067 48.36 10.8 49.72 10.8C51.3867 10.8 52.8133 11.24 54 12.12C55.1867 13 55.98 14.2 56.38 15.72H52.62C52.34 15.1333 51.94 14.6867 51.42 14.38C50.9133 14.0733 50.3333 13.92 49.68 13.92C48.6267 13.92 47.7733 14.2867 47.12 15.02C46.4667 15.7533 46.14 16.7333 46.14 17.96C46.14 19.1867 46.4667 20.1667 47.12 20.9C47.7733 21.6333 48.6267 22 49.68 22C50.3333 22 50.9133 21.8467 51.42 21.54C51.94 21.2333 52.34 20.7867 52.62 20.2H56.38C55.98 21.72 55.1867 22.92 54 23.8C52.8133 24.6667 51.3867 25.1 49.72 25.1C48.36 25.1 47.14 24.8 46.06 24.2C44.9933 23.5867 44.16 22.74 43.56 21.66C42.96 20.58 42.66 19.3467 42.66 17.96ZM62.0744 25.16C61.4744 25.16 60.981 24.9867 60.5944 24.64C60.221 24.28 60.0344 23.84 60.0344 23.32C60.0344 22.7867 60.221 22.34 60.5944 21.98C60.981 21.62 61.4744 21.44 62.0744 21.44C62.661 21.44 63.141 21.62 63.5144 21.98C63.901 22.34 64.0944 22.7867 64.0944 23.32C64.0944 23.84 63.901 24.28 63.5144 24.64C63.141 24.9867 62.661 25.16 62.0744 25.16ZM90.0783 25.16C89.4783 25.16 88.9849 24.9867 88.5983 24.64C88.2249 24.28 88.0383 23.84 88.0383 23.32C88.0383 22.7867 88.2249 22.34 88.5983 21.98C88.9849 21.62 89.4783 21.44 90.0783 21.44C90.6649 21.44 91.1449 21.62 91.5183 21.98C91.9049 22.34 92.0983 22.7867 92.0983 23.32C92.0983 23.84 91.9049 24.28 91.5183 24.64C91.1449 24.9867 90.6649 25.16 90.0783 25.16ZM101.203 25.14C100.176 25.14 99.2561 24.9733 98.4428 24.64C97.6295 24.3067 96.9761 23.8133 96.4828 23.16C96.0028 22.5067 95.7495 21.72 95.7228 20.8H99.3628C99.4161 21.32 99.5961 21.72 99.9028 22C100.209 22.2667 100.609 22.4 101.103 22.4C101.609 22.4 102.009 22.2867 102.303 22.06C102.596 21.82 102.743 21.4933 102.743 21.08C102.743 20.7333 102.623 20.4467 102.383 20.22C102.156 19.9933 101.869 19.8067 101.523 19.66C101.189 19.5133 100.709 19.3467 100.083 19.16C99.1761 18.88 98.4361 18.6 97.8628 18.32C97.2895 18.04 96.7961 17.6267 96.3828 17.08C95.9695 16.5333 95.7628 15.82 95.7628 14.94C95.7628 13.6333 96.2361 12.6133 97.1828 11.88C98.1295 11.1333 99.3628 10.76 100.883 10.76C102.429 10.76 103.676 11.1333 104.623 11.88C105.569 12.6133 106.076 13.64 106.143 14.96H102.443C102.416 14.5067 102.249 14.1533 101.943 13.9C101.636 13.6333 101.243 13.5 100.763 13.5C100.349 13.5 100.016 13.6133 99.7628 13.84C99.5095 14.0533 99.3828 14.3667 99.3828 14.78C99.3828 15.2333 99.5961 15.5867 100.023 15.84C100.449 16.0933 101.116 16.3667 102.023 16.66C102.929 16.9667 103.663 17.26 104.223 17.54C104.796 17.82 105.289 18.2267 105.703 18.76C106.116 19.2933 106.323 19.98 106.323 20.82C106.323 21.62 106.116 22.3467 105.703 23C105.303 23.6533 104.716 24.1733 103.943 24.56C103.169 24.9467 102.256 25.14 101.203 25.14Z" fill="#3D3D3D"/>
<path d="M84.0189 10.96V25H80.5989V16.58L77.4589 25H74.6989L71.5389 16.56V25H68.1189V10.96H72.1589L76.0989 20.68L79.9989 10.96H84.0189Z" fill="#03ADF7"/>
<defs>
<linearGradient id="paint0_linear" x1="16.3636" y1="7.27273" x2="16.3636" y2="25.4545" gradientUnits="userSpaceOnUse">
<stop stop-color="#03ADF7"/>
<stop offset="1" stop-color="#8AD8FA"/>
</linearGradient>
</defs>
</svg>
