<svg width="24" height="24" viewBox="0 0 24 24" fill="none" xmlns="http://www.w3.org/2000/svg">
<path d="M3 14H21C21.55 14 22 14.45 22 15C22 15.55 21.55 16 21 16H3C2.45 16 2 15.55 2 15C2 14.45 2.45 14 3 14ZM2.5 9.57001C2.86 9.78001 3.32 9.65001 3.53 9.29001L4 8.47001L4.48 9.30001C4.69 9.66001 5.15 9.78001 5.51 9.58001C5.87 9.37001 5.99 8.92001 5.79 8.56001L5.3 7.72001H6.25C6.66 7.72001 7 7.38001 7 6.97001C7 6.56001 6.66 6.22001 6.25 6.22001H5.3L5.77 5.40001C5.98 5.04001 5.86 4.58001 5.5 4.37001C5.32574 4.27301 5.12045 4.248 4.92799 4.30031C4.73554 4.35263 4.57117 4.47814 4.47 4.65001L4 5.47001L3.53 4.65001C3.42883 4.47814 3.26446 4.35263 3.07201 4.30031C2.87955 4.248 2.67426 4.27301 2.5 4.37001C2.14 4.58001 2.02 5.04001 2.23 5.40001L2.7 6.22001H1.75C1.34 6.22001 1 6.56001 1 6.97001C1 7.38001 1.34 7.72001 1.75 7.72001H2.7L2.22 8.55001C2.02 8.91001 2.14 9.37001 2.5 9.57001ZM10.5 9.57001C10.86 9.78001 11.32 9.65001 11.53 9.29001L12 8.47001L12.48 9.30001C12.69 9.66001 13.15 9.78001 13.51 9.58001C13.87 9.37001 13.99 8.92001 13.79 8.56001L13.31 7.73001H14.26C14.67 7.73001 15.01 7.39001 15.01 6.98001C15.01 6.57001 14.67 6.23001 14.26 6.23001H13.3L13.77 5.41001C13.8689 5.23718 13.896 5.03244 13.8455 4.83983C13.795 4.64721 13.671 4.4821 13.5 4.38001C13.4153 4.33076 13.3217 4.29867 13.2246 4.28558C13.1275 4.27249 13.0288 4.27866 12.9341 4.30373C12.8394 4.3288 12.7505 4.37229 12.6726 4.4317C12.5947 4.49112 12.5292 4.5653 12.48 4.65001L12 5.47001L11.53 4.65001C11.4811 4.56491 11.4159 4.49034 11.338 4.43062C11.2602 4.3709 11.1712 4.32722 11.0764 4.30211C10.9815 4.277 10.8826 4.27096 10.7854 4.28433C10.6882 4.2977 10.5946 4.33022 10.51 4.38001C10.15 4.59001 10.03 5.05001 10.24 5.41001L10.71 6.23001H9.75C9.65198 6.22869 9.55468 6.24685 9.46374 6.28345C9.3728 6.32004 9.29004 6.37434 9.22026 6.44319C9.15049 6.51203 9.09508 6.59406 9.05727 6.6845C9.01946 6.77494 8.99999 6.87199 9 6.97001C9 7.38001 9.34 7.72001 9.75 7.72001H10.7L10.22 8.55001C10.02 8.91001 10.14 9.37001 10.5 9.57001ZM23 6.97001C23 6.56001 22.66 6.22001 22.25 6.22001H21.3L21.77 5.40001C21.8689 5.22718 21.896 5.02244 21.8455 4.82983C21.795 4.63721 21.671 4.4721 21.5 4.37001C21.4153 4.32076 21.3217 4.28867 21.2246 4.27558C21.1275 4.26249 21.0288 4.26866 20.9341 4.29373C20.8394 4.3188 20.7505 4.36229 20.6726 4.4217C20.5947 4.48112 20.5292 4.5553 20.48 4.64001L20 5.47001L19.53 4.65001C19.4811 4.56491 19.4159 4.49034 19.338 4.43062C19.2602 4.3709 19.1712 4.32722 19.0764 4.30211C18.9815 4.277 18.8826 4.27096 18.7854 4.28433C18.6882 4.2977 18.5946 4.33022 18.51 4.38001C18.15 4.59001 18.03 5.05001 18.24 5.41001L18.71 6.23001H17.76C17.6613 6.22775 17.5631 6.2452 17.4711 6.28134C17.3792 6.31748 17.2954 6.37158 17.2247 6.44048C17.1539 6.50938 17.0976 6.5917 17.059 6.68262C17.0204 6.77355 17.0004 6.87125 17 6.97001C17 7.38001 17.34 7.72001 17.75 7.72001H18.7L18.22 8.55001C18.1703 8.6351 18.1382 8.72925 18.1254 8.82694C18.1126 8.92463 18.1194 9.02388 18.1455 9.11889C18.1716 9.21389 18.2164 9.30274 18.2773 9.3802C18.3381 9.45767 18.4139 9.5222 18.5 9.57001C18.86 9.78001 19.32 9.65001 19.53 9.29001L20 8.47001L20.48 9.30001C20.69 9.66001 21.15 9.78001 21.51 9.58001C21.87 9.37001 21.99 8.92001 21.79 8.56001L21.31 7.73001H22.26C22.66 7.72001 23 7.38001 23 6.97001Z" fill="#1FB6F7"/>
</svg>
