<svg width="400" height="250" viewBox="0 0 400 250" fill="none" xmlns="http://www.w3.org/2000/svg">
<g clip-path="url(#clip0)">
<path d="M37.7235 241.398C39.4935 243.784 41.6877 245.823 44.1964 247.414C44.7299 247.752 45.2776 248.071 45.8348 248.367H58.9474C58.7904 248.052 58.6379 247.733 58.4902 247.414C54.4245 238.835 53.1496 229.197 54.8447 219.856C56.5397 210.514 61.1195 201.939 67.9402 195.335C60.0144 197.783 52.6889 202.556 47.8973 209.324C45.569 212.62 43.9132 216.343 43.0247 220.279C42.2328 212.407 43.4913 204.463 46.6779 197.221C40.2431 202.456 35.2321 209.624 33.3223 217.693C31.4124 225.766 32.7983 234.725 37.7235 241.398Z" fill="#F0F0F0"/>
<path d="M397.927 133.837H308.777C308.228 133.836 307.701 133.617 307.312 133.229C306.923 132.84 306.705 132.313 306.704 131.763V76.6151C306.705 76.0654 306.923 75.5384 307.312 75.1498C307.701 74.7611 308.228 74.5425 308.777 74.5418H397.927C398.477 74.5425 399.003 74.7611 399.392 75.1498C399.781 75.5384 399.999 76.0654 400 76.6151V131.763C399.999 132.313 399.781 132.84 399.392 133.229C399.003 133.617 398.477 133.836 397.927 133.837Z" fill="white"/>
<path d="M397.927 133.837H308.777C308.228 133.836 307.701 133.617 307.312 133.229C306.923 132.84 306.705 132.313 306.704 131.763V76.6151C306.705 76.0654 306.923 75.5384 307.312 75.1498C307.701 74.7611 308.228 74.5425 308.777 74.5418H397.927C398.477 74.5425 399.003 74.7611 399.392 75.1498C399.781 75.5384 399.999 76.0654 400 76.6151V131.763C399.999 132.313 399.781 132.84 399.392 133.229C399.003 133.617 398.477 133.836 397.927 133.837ZM308.777 75.3711C308.448 75.3715 308.131 75.5027 307.898 75.7359C307.665 75.9691 307.534 76.2853 307.533 76.6151V131.763C307.534 132.093 307.665 132.409 307.898 132.643C308.131 132.876 308.448 133.007 308.777 133.007H397.927C398.257 133.007 398.573 132.876 398.806 132.643C399.039 132.409 399.17 132.093 399.171 131.763V76.6151C399.17 76.2853 399.039 75.9691 398.806 75.7359C398.573 75.5027 398.257 75.3715 397.927 75.3711H308.777Z" fill="#3F3D56"/>
<path d="M380.304 92.9598H326.4C325.905 92.9598 325.43 92.7632 325.081 92.4133C324.731 92.0633 324.534 91.5887 324.534 91.0939C324.534 90.599 324.731 90.1244 325.081 89.7744C325.43 89.4245 325.905 89.2279 326.4 89.2279H380.304C380.799 89.2279 381.274 89.4245 381.624 89.7744C381.974 90.1244 382.17 90.599 382.17 91.0939C382.17 91.5887 381.974 92.0633 381.624 92.4133C381.274 92.7632 380.799 92.9598 380.304 92.9598Z" fill="#CCCCCC"/>
<path d="M380.304 105.814H326.4C325.905 105.814 325.43 105.617 325.081 105.267C324.731 104.917 324.534 104.443 324.534 103.948C324.534 103.453 324.731 102.979 325.081 102.629C325.43 102.279 325.905 102.082 326.4 102.082H380.304C380.799 102.082 381.274 102.279 381.624 102.629C381.974 102.979 382.17 103.453 382.17 103.948C382.17 104.443 381.974 104.917 381.624 105.267C381.274 105.617 380.799 105.814 380.304 105.814Z" fill="#CCCCCC"/>
<path d="M375.502 126.194C379.185 126.194 382.17 123.209 382.17 119.526C382.17 115.843 379.185 112.858 375.502 112.858C371.819 112.858 368.833 115.843 368.833 119.526C368.833 123.209 371.819 126.194 375.502 126.194Z" fill="#6C63FF"/>
<path d="M375.685 116.385V115.749H375.873V116.385C376.139 116.396 376.401 116.46 376.642 116.573C376.817 116.655 376.969 116.781 377.081 116.939C377.185 117.084 377.241 117.259 377.24 117.438C377.244 117.569 377.2 117.697 377.117 117.797C377.081 117.843 377.035 117.881 376.982 117.906C376.93 117.931 376.872 117.944 376.814 117.944C376.77 117.945 376.727 117.937 376.687 117.92C376.646 117.903 376.61 117.879 376.58 117.848C376.548 117.817 376.523 117.779 376.507 117.738C376.49 117.698 376.482 117.654 376.483 117.609C376.484 117.548 376.496 117.486 376.521 117.43L376.596 117.271C376.623 117.204 376.636 117.133 376.634 117.062C376.636 116.951 376.601 116.843 376.534 116.755C376.46 116.662 376.361 116.593 376.249 116.556C376.127 116.516 376.001 116.491 375.873 116.481V118.767L375.915 118.792C376.308 119 376.665 119.27 376.972 119.591C377.109 119.752 377.217 119.935 377.292 120.132C377.367 120.323 377.406 120.526 377.407 120.732C377.411 120.997 377.341 121.259 377.207 121.488C377.075 121.712 376.882 121.893 376.651 122.011C376.407 122.13 376.143 122.207 375.873 122.236V122.918H375.685V122.249C375.412 122.247 375.143 122.191 374.891 122.086C374.64 121.992 374.418 121.834 374.249 121.626C374.101 121.44 374.02 121.208 374.022 120.97C374.016 120.802 374.068 120.638 374.168 120.504C374.207 120.446 374.26 120.398 374.322 120.365C374.384 120.332 374.453 120.314 374.523 120.314C374.565 120.312 374.607 120.319 374.646 120.335C374.685 120.35 374.721 120.373 374.751 120.403C374.781 120.433 374.804 120.468 374.819 120.508C374.835 120.547 374.842 120.589 374.841 120.631C374.827 120.759 374.773 120.88 374.686 120.977C374.641 121.036 374.603 121.101 374.571 121.169C374.55 121.222 374.539 121.278 374.54 121.335C374.541 121.488 374.593 121.635 374.688 121.754C374.792 121.888 374.93 121.991 375.087 122.053C375.267 122.123 375.459 122.157 375.652 122.153H375.685V119.423L375.447 119.285C375.221 119.155 375.049 119.046 374.931 118.959C374.815 118.876 374.708 118.78 374.611 118.675C374.371 118.419 374.238 118.081 374.239 117.731C374.238 117.512 374.292 117.297 374.398 117.106C374.501 116.915 374.652 116.754 374.837 116.64C375.094 116.485 375.385 116.397 375.685 116.385ZM375.685 116.477C375.523 116.482 375.364 116.517 375.215 116.581C375.066 116.655 374.944 116.773 374.865 116.919C374.776 117.078 374.73 117.258 374.732 117.44C374.73 117.663 374.799 117.88 374.928 118.062C374.996 118.161 375.078 118.249 375.171 118.325C375.322 118.437 375.48 118.54 375.644 118.633L375.685 118.659V116.477ZM375.873 122.144C375.981 122.135 376.087 122.113 376.189 122.077C376.272 122.045 376.35 122 376.418 121.944C376.547 121.834 376.647 121.694 376.71 121.536C376.782 121.362 376.819 121.175 376.818 120.987C376.801 120.684 376.705 120.391 376.539 120.137C376.374 119.883 376.144 119.677 375.873 119.54V122.144Z" fill="white"/>
<path d="M337.198 96.9229H248.048C247.499 96.9223 246.972 96.7036 246.583 96.315C246.194 95.9263 245.976 95.3993 245.975 94.8497V39.7014C245.976 39.1517 246.194 38.6247 246.583 38.2361C246.972 37.8474 247.499 37.6288 248.048 37.6281H337.198C337.747 37.6288 338.274 37.8474 338.663 38.2361C339.052 38.6247 339.27 39.1517 339.271 39.7014V94.8497C339.27 95.3993 339.052 95.9263 338.663 96.315C338.274 96.7036 337.747 96.9223 337.198 96.9229Z" fill="white"/>
<path d="M337.198 96.9229H248.048C247.499 96.9223 246.972 96.7036 246.583 96.315C246.194 95.9263 245.976 95.3993 245.975 94.8497V39.7014C245.976 39.1517 246.194 38.6247 246.583 38.2361C246.972 37.8474 247.499 37.6288 248.048 37.6281H337.198C337.747 37.6288 338.274 37.8474 338.663 38.2361C339.052 38.6247 339.27 39.1517 339.271 39.7014V94.8497C339.27 95.3993 339.052 95.9263 338.663 96.315C338.274 96.7036 337.747 96.9223 337.198 96.9229ZM248.048 38.4574C247.719 38.4578 247.402 38.589 247.169 38.8222C246.936 39.0554 246.805 39.3716 246.804 39.7014V94.8497C246.805 95.1795 246.936 95.4957 247.169 95.7289C247.402 95.9621 247.719 96.0932 248.048 96.0936H337.198C337.528 96.0932 337.844 95.9621 338.077 95.7289C338.31 95.4957 338.441 95.1795 338.442 94.8497V39.7014C338.441 39.3716 338.31 39.0554 338.077 38.8222C337.844 38.589 337.528 38.4578 337.198 38.4574H248.048Z" fill="#3F3D56"/>
<path d="M319.575 56.0461H265.671C265.176 56.0461 264.701 55.8495 264.352 55.4996C264.002 55.1496 263.805 54.675 263.805 54.1802C263.805 53.6853 264.002 53.2107 264.352 52.8608C264.701 52.5108 265.176 52.3142 265.671 52.3142H319.575C320.07 52.3142 320.545 52.5108 320.895 52.8608C321.245 53.2107 321.441 53.6853 321.441 54.1802C321.441 54.675 321.245 55.1496 320.895 55.4996C320.545 55.8495 320.07 56.0461 319.575 56.0461Z" fill="#CCCCCC"/>
<path d="M319.575 68.9002H265.671C265.176 68.9002 264.701 68.7036 264.352 68.3537C264.002 68.0038 263.805 67.5292 263.805 67.0343C263.805 66.5394 264.002 66.0648 264.352 65.7149C264.701 65.365 265.176 65.1684 265.671 65.1684H319.575C320.07 65.1684 320.545 65.365 320.895 65.7149C321.245 66.0648 321.441 66.5394 321.441 67.0343C321.441 67.5292 321.245 68.0038 320.895 68.3537C320.545 68.7036 320.07 68.9002 319.575 68.9002Z" fill="#CCCCCC"/>
<path d="M314.773 89.2807C318.456 89.2807 321.441 86.2952 321.441 82.6124C321.441 78.9296 318.456 75.9441 314.773 75.9441C311.09 75.9441 308.104 78.9296 308.104 82.6124C308.104 86.2952 311.09 89.2807 314.773 89.2807Z" fill="#6C63FF"/>
<path d="M314.956 79.4711V78.8358H315.144V79.4711C315.41 79.4827 315.672 79.5466 315.913 79.6592C316.088 79.7415 316.24 79.8674 316.352 80.025C316.456 80.1707 316.512 80.3454 316.511 80.5244C316.515 80.6552 316.471 80.783 316.388 80.8838C316.352 80.9297 316.306 80.9668 316.253 80.9922C316.201 81.0175 316.143 81.0305 316.085 81.0301C316.041 81.0309 315.998 81.0228 315.958 81.0063C315.917 80.9898 315.881 80.9652 315.851 80.934C315.819 80.903 315.794 80.8658 315.778 80.8248C315.761 80.7838 315.753 80.7399 315.754 80.6957C315.755 80.6339 315.767 80.5727 315.792 80.516L315.867 80.3572C315.894 80.2908 315.907 80.2197 315.905 80.1482C315.907 80.0374 315.872 79.9292 315.805 79.8411C315.731 79.7486 315.632 79.6796 315.52 79.6424C315.398 79.6025 315.272 79.5772 315.144 79.5672V81.8535L315.186 81.8785C315.579 82.0865 315.936 82.356 316.243 82.6769C316.38 82.838 316.488 83.021 316.563 83.2182C316.638 83.4093 316.677 83.6126 316.678 83.8179C316.682 84.0837 316.612 84.3453 316.478 84.5744C316.346 84.7981 316.153 84.9794 315.922 85.0969C315.678 85.2166 315.414 85.2929 315.144 85.3226V86.0039H314.956V85.3351C314.683 85.3329 314.414 85.2776 314.162 85.1721C313.911 85.0788 313.689 84.92 313.52 84.7124C313.372 84.5262 313.291 84.2945 313.293 84.0562C313.287 83.8887 313.339 83.7245 313.439 83.5901C313.478 83.5321 313.531 83.4845 313.593 83.4514C313.655 83.4184 313.724 83.4007 313.794 83.4C313.836 83.3985 313.878 83.4057 313.917 83.4211C313.956 83.4365 313.992 83.4598 314.022 83.4895C314.052 83.5192 314.075 83.5547 314.09 83.5938C314.106 83.633 314.113 83.6749 314.112 83.7169C314.098 83.8456 314.044 83.9666 313.957 84.063C313.912 84.1227 313.874 84.187 313.842 84.2549C313.821 84.3078 313.81 84.3646 313.811 84.4217C313.812 84.5741 313.864 84.7218 313.959 84.8407C314.063 84.9739 314.201 85.0769 314.358 85.1388C314.538 85.2089 314.73 85.243 314.923 85.239H314.956V82.5097L314.718 82.3718C314.492 82.2408 314.32 82.1322 314.202 82.0457C314.086 81.9618 313.979 81.8666 313.882 81.7615C313.642 81.5057 313.509 81.1677 313.51 80.8169C313.509 80.5985 313.563 80.3835 313.669 80.1921C313.772 80.0012 313.923 79.8405 314.108 79.726C314.365 79.5711 314.656 79.4835 314.956 79.4711ZM314.956 79.563C314.794 79.5681 314.635 79.6035 314.486 79.6674C314.337 79.7411 314.215 79.8591 314.136 80.0053C314.047 80.1642 314.001 80.3441 314.003 80.5266C314.001 80.7492 314.07 80.9667 314.199 81.1482C314.267 81.247 314.349 81.3355 314.442 81.4111C314.593 81.5237 314.751 81.6268 314.915 81.7198L314.956 81.7448V79.563ZM315.144 85.2306C315.252 85.2216 315.358 85.1992 315.46 85.1638C315.543 85.1317 315.621 85.0865 315.689 85.03C315.818 84.9201 315.918 84.7802 315.981 84.6226C316.053 84.4485 316.09 84.2615 316.089 84.0729C316.072 83.7701 315.976 83.477 315.81 83.2232C315.645 82.9693 315.415 82.7636 315.144 82.6267V85.2306Z" fill="white"/>
<path d="M152.392 88.694C151.615 88.6379 150.836 88.7527 150.108 89.0304C149.381 89.3082 148.723 89.742 148.181 90.3014C147.639 90.8609 147.227 91.5323 146.973 92.2683C146.719 93.0044 146.629 93.7872 146.71 94.5617L129.572 102.596L137.96 107.733L152.949 99.3155C154.241 99.0929 155.407 98.4042 156.225 97.3797C157.043 96.3553 157.457 95.0663 157.388 93.7571C157.32 92.4478 156.773 91.2093 155.852 90.2761C154.931 89.343 153.7 88.78 152.392 88.694Z" fill="#FFB6B6"/>
<path d="M81.4717 243.283L87.3907 243.282L90.2066 220.452L81.4707 220.452L81.4717 243.283Z" fill="#FFB6B6"/>
<path d="M79.9619 241.35L91.6185 241.35H91.6189C93.589 241.35 95.4784 242.132 96.8715 243.525C98.2646 244.918 99.0473 246.808 99.0474 248.778V249.019L79.9623 249.02L79.9619 241.35Z" fill="#2F2E41"/>
<path d="M111.674 243.283L117.593 243.282L120.409 220.452L111.673 220.452L111.674 243.283Z" fill="#FFB6B6"/>
<path d="M110.164 241.35L121.821 241.35H121.821C123.792 241.35 125.681 242.132 127.074 243.525C128.467 244.918 129.25 246.808 129.25 248.778V249.019L110.165 249.02L110.164 241.35Z" fill="#2F2E41"/>
<path d="M115.628 124.868L118.632 131.336L124.048 189.177L119.838 238.893H109.991L98.3723 160.529L92.9148 237.088L79.6287 236.551L77.0781 132.755L115.628 124.868Z" fill="#2F2E41"/>
<path d="M67.7537 71.4908L80.2089 66.4234L97.7887 67.4094L113.418 73.1049L118.632 131.336C105.035 138.76 91.2623 140.787 77.2496 135.478L64.2446 97.5507L67.7537 71.4908Z" fill="#E4E4E4"/>
<path d="M108.555 74.6444L114.083 73.1049C114.083 73.1049 118.263 70.3867 119.639 78.467C121.014 86.5472 128.091 99.1157 128.091 99.1157L140.207 92.6588L145.817 104.909L126.683 116.499L106.534 96.1968L108.555 74.6444Z" fill="#E4E4E4"/>
<path d="M78.2379 55.6349C77.5667 54.1119 77.2021 52.4716 77.1648 50.8076C77.1275 49.1436 77.4184 47.4886 78.0207 45.9371C78.623 44.3855 79.5251 42.9678 80.6753 41.7648C81.8256 40.5618 83.2015 39.5972 84.7245 38.926C86.2476 38.2548 87.8879 37.8902 89.5519 37.8529C91.2158 37.8156 92.8709 38.1065 94.4224 38.7088C95.974 39.3111 97.3917 40.2132 98.5947 41.3634C99.7976 42.5137 100.762 43.8896 101.433 45.4126L101.506 45.5803C102.84 48.6665 102.893 52.156 101.653 55.2812C101.04 56.8287 100.127 58.2402 98.9681 59.435C97.809 60.6299 96.426 61.5847 94.8978 62.2451C91.8117 63.5787 88.3222 63.6317 85.1969 62.3924C82.0717 61.1532 79.5667 58.7231 78.2331 55.637L78.2379 55.6349Z" fill="#FFB6B6"/>
<path d="M95.4446 44.0352C98.0799 44.5134 102.158 46.1725 104.422 44.2261C103.304 42.92 101.898 41.8915 100.314 41.2219C100.003 41.1184 99.7138 40.9552 99.4642 40.7414C98.6926 39.9616 99.2888 38.6179 98.9357 37.5635C98.7642 37.1782 98.5056 36.838 98.1802 36.5697C97.8549 36.3014 97.4716 36.1124 97.0607 36.0175C96.2751 35.7824 95.4519 35.7443 94.6802 35.4592C92.854 34.7729 91.5557 32.8087 89.6838 32.2749C88.0528 31.8032 86.4117 32.5364 85.0041 33.392C83.5965 34.2477 82.2041 35.2629 80.5573 35.4252C79.3268 35.5375 78.5478 37.5616 77.3124 37.6209C74.7236 37.7468 74.8674 36.0405 74.6759 38.7602C74.5654 40.3831 72.2464 43.6117 72.2841 45.2488C72.3224 46.3215 72.1327 47.3839 72.1633 48.4599C72.2329 50.5092 73.0548 52.4611 74.4722 53.9429C75.6508 55.1549 77.1837 55.9724 78.1759 57.3539C78.6918 58.0873 79.0497 58.9435 79.6503 59.6071C80.2509 60.2707 81.2682 60.6701 81.9385 60.1963C82.6088 59.7225 82.6213 58.6972 82.9539 57.9169C83.1579 57.4386 83.5064 57.036 83.9506 56.7656C84.3948 56.4952 84.9125 56.3705 85.4311 56.409C85.9698 56.4794 86.4781 56.6987 86.8989 57.0422C87.3197 57.3857 87.6363 57.8398 87.813 58.3535C87.4992 56.6292 86.6716 55.0136 86.3572 53.2881C86.0427 51.5625 86.4525 49.5011 87.9384 48.8274C88.5764 48.5305 89.4382 48.4508 89.6946 47.7667C89.8516 47.3547 89.708 46.8678 89.7685 46.4222C90.095 44.2383 93.7262 43.698 95.4446 44.0352Z" fill="#2F2E41"/>
<path d="M78.743 134.805C78.6294 134.034 78.3483 133.298 77.9194 132.648C77.4906 131.998 76.9245 131.45 76.2609 131.043C75.5974 130.635 74.8525 130.378 74.0789 130.29C73.3052 130.201 72.5216 130.283 71.7831 130.53L60.2238 115.541L57.0282 124.844L68.495 137.652C68.9924 138.865 69.9174 139.853 71.0949 140.43C72.2723 141.006 73.6204 141.131 74.8836 140.78C76.1467 140.429 77.2373 139.627 77.9486 138.526C78.66 137.424 78.9426 136.1 78.743 134.805V134.805Z" fill="#FFB6B6"/>
<path d="M71.7464 74.3179L67.7538 71.4908C67.7538 71.4908 58.6197 70.9675 57.291 78.467L40.5425 106.019L61.3085 134.668L71.3764 124.069L58.6728 109.224L69.3389 89.6404L71.7464 74.3179Z" fill="#E4E4E4"/>
<path d="M169.019 78.6837H168.81V72.9456C168.81 72.5095 168.724 72.0776 168.557 71.6747C168.39 71.2717 168.145 70.9056 167.837 70.5972C167.528 70.2889 167.162 70.0442 166.759 69.8773C166.356 69.7104 165.925 69.6245 165.488 69.6245H153.332C152.895 69.6245 152.464 69.7104 152.061 69.8773C151.658 70.0442 151.292 70.2889 150.983 70.5972C150.675 70.9056 150.43 71.2717 150.263 71.6747C150.096 72.0776 150.01 72.5094 150.01 72.9456V104.425C150.01 104.861 150.096 105.293 150.263 105.696C150.43 106.099 150.675 106.465 150.983 106.773C151.292 107.082 151.658 107.326 152.061 107.493C152.464 107.66 152.895 107.746 153.332 107.746H165.488C165.925 107.746 166.356 107.66 166.759 107.493C167.162 107.326 167.528 107.082 167.837 106.773C168.145 106.465 168.39 106.099 168.557 105.696C168.724 105.293 168.809 104.861 168.809 104.425V82.7681H169.019V78.6837Z" fill="#3F3D56"/>
<path d="M165.623 70.4885H164.036C164.109 70.6674 164.137 70.8616 164.117 71.0538C164.097 71.246 164.03 71.4304 163.923 71.5908C163.815 71.7512 163.669 71.8826 163.499 71.9734C163.328 72.0643 163.138 72.1118 162.945 72.1118H155.98C155.787 72.1118 155.597 72.0643 155.426 71.9734C155.256 71.8826 155.11 71.7511 155.002 71.5908C154.895 71.4304 154.828 71.246 154.808 71.0538C154.788 70.8615 154.816 70.6674 154.889 70.4885H153.407C152.749 70.4885 152.119 70.7498 151.653 71.2149C151.188 71.68 150.927 72.3109 150.927 72.9686V104.402C150.927 105.06 151.188 105.691 151.653 106.156C152.119 106.621 152.749 106.882 153.407 106.882H165.623C166.28 106.882 166.911 106.621 167.376 106.156C167.841 105.691 168.103 105.06 168.103 104.402V72.9686C168.103 72.3109 167.841 71.68 167.376 71.2149C166.911 70.7498 166.28 70.4885 165.623 70.4885Z" fill="#6C63FF"/>
<path d="M275.278 59.2947H186.129C185.579 59.2941 185.052 59.0755 184.663 58.6868C184.275 58.2981 184.056 57.7712 184.055 57.2215V2.07324C184.056 1.52357 184.275 0.996598 184.663 0.607926C185.052 0.219254 185.579 0.000621425 186.129 -7.62939e-06H275.278C275.828 0.000621428 276.355 0.219253 276.743 0.607926C277.132 0.996598 277.351 1.52358 277.351 2.07324V57.2215C277.351 57.7712 277.132 58.2981 276.743 58.6868C276.355 59.0755 275.828 59.2941 275.278 59.2947Z" fill="white"/>
<path d="M275.278 59.2947H186.129C185.579 59.2941 185.052 59.0755 184.663 58.6868C184.275 58.2981 184.056 57.7712 184.055 57.2215V2.07324C184.056 1.52357 184.275 0.996598 184.663 0.607926C185.052 0.219254 185.579 0.000621425 186.129 -7.62939e-06H275.278C275.828 0.000621428 276.355 0.219253 276.743 0.607926C277.132 0.996598 277.351 1.52358 277.351 2.07324V57.2215C277.351 57.7712 277.132 58.2981 276.743 58.6868C276.355 59.0755 275.828 59.2941 275.278 59.2947ZM186.129 0.82929C185.799 0.829651 185.483 0.960827 185.249 1.19403C185.016 1.42724 184.885 1.74344 184.885 2.07324V57.2215C184.885 57.5513 185.016 57.8675 185.249 58.1007C185.483 58.3339 185.799 58.4651 186.129 58.4654H275.278C275.608 58.4651 275.924 58.3339 276.157 58.1007C276.39 57.8675 276.522 57.5513 276.522 57.2215V2.07324C276.522 1.74344 276.39 1.42724 276.157 1.19403C275.924 0.960827 275.608 0.829651 275.278 0.82929H186.129Z" fill="#3F3D56"/>
<path d="M257.656 18.418H203.751C203.256 18.418 202.782 18.2214 202.432 17.8714C202.082 17.5215 201.885 17.0469 201.885 16.552C201.885 16.0572 202.082 15.5826 202.432 15.2326C202.782 14.8827 203.256 14.6861 203.751 14.6861H257.656C258.15 14.6861 258.625 14.8827 258.975 15.2326C259.325 15.5826 259.521 16.0572 259.521 16.552C259.521 17.0469 259.325 17.5215 258.975 17.8714C258.625 18.2214 258.15 18.418 257.656 18.418Z" fill="#CCCCCC"/>
<path d="M257.656 31.272H203.751C203.256 31.272 202.782 31.0755 202.432 30.7255C202.082 30.3756 201.885 29.901 201.885 29.4061C201.885 28.9112 202.082 28.4366 202.432 28.0867C202.782 27.7368 203.256 27.5402 203.751 27.5402H257.656C258.15 27.5402 258.625 27.7368 258.975 28.0867C259.325 28.4366 259.521 28.9112 259.521 29.4061C259.521 29.901 259.325 30.3756 258.975 30.7255C258.625 31.0755 258.15 31.272 257.656 31.272Z" fill="#CCCCCC"/>
<path d="M252.853 51.6525C256.536 51.6525 259.521 48.667 259.521 44.9843C259.521 41.3015 256.536 38.316 252.853 38.316C249.17 38.316 246.185 41.3015 246.185 44.9843C246.185 48.667 249.17 51.6525 252.853 51.6525Z" fill="#6C63FF"/>
<path d="M253.036 41.8429V41.2076H253.224V41.8429C253.491 41.8545 253.752 41.9184 253.993 42.031C254.169 42.1133 254.32 42.2393 254.432 42.3968C254.536 42.5425 254.592 42.7172 254.591 42.8962C254.595 43.027 254.551 43.1548 254.468 43.2557C254.432 43.3016 254.386 43.3387 254.333 43.364C254.281 43.3894 254.223 43.4024 254.165 43.4019C254.121 43.4028 254.078 43.3947 254.038 43.3782C253.997 43.3616 253.961 43.337 253.931 43.3058C253.899 43.2748 253.874 43.2376 253.858 43.1967C253.841 43.1557 253.833 43.1118 253.835 43.0676C253.835 43.0057 253.847 42.9446 253.872 42.8878L253.947 42.729C253.974 42.6626 253.987 42.5915 253.985 42.52C253.987 42.4093 253.952 42.3011 253.885 42.2129C253.811 42.1204 253.713 42.0514 253.601 42.0143C253.479 41.9743 253.352 41.949 253.224 41.939V44.2253L253.266 44.2504C253.659 44.4583 254.016 44.7278 254.324 45.0487C254.46 45.2099 254.568 45.3929 254.643 45.59C254.718 45.7811 254.757 45.9844 254.758 46.1897C254.762 46.4555 254.692 46.7171 254.558 46.9463C254.426 47.1699 254.233 47.3512 254.002 47.4687C253.758 47.5884 253.495 47.6648 253.224 47.6944V48.3757H253.036V47.707C252.764 47.7048 252.494 47.6494 252.242 47.544C251.991 47.4506 251.77 47.2919 251.601 47.0842C251.452 46.898 251.371 46.6664 251.373 46.428C251.368 46.2606 251.419 46.0963 251.519 45.9619C251.559 45.9039 251.612 45.8564 251.673 45.8233C251.735 45.7902 251.804 45.7725 251.874 45.7718C251.916 45.7703 251.958 45.7775 251.997 45.7929C252.037 45.8083 252.072 45.8316 252.102 45.8613C252.132 45.891 252.155 45.9265 252.171 45.9657C252.186 46.0048 252.193 46.0467 252.192 46.0888C252.178 46.2174 252.124 46.3384 252.037 46.4349C251.992 46.4945 251.954 46.5589 251.922 46.6267C251.901 46.6797 251.89 46.7364 251.891 46.7935C251.892 46.9459 251.944 47.0936 252.039 47.2125C252.144 47.3457 252.281 47.4487 252.439 47.5107C252.618 47.5807 252.81 47.6148 253.003 47.6108H253.036V44.8815L252.798 44.7436C252.572 44.6127 252.4 44.504 252.282 44.4176C252.166 44.3337 252.059 44.2385 251.962 44.1334C251.722 43.8776 251.589 43.5396 251.59 43.1888C251.589 42.9704 251.644 42.7553 251.749 42.564C251.852 42.373 252.003 42.2124 252.188 42.0979C252.445 41.943 252.737 41.8553 253.036 41.8429ZM253.036 41.9349C252.874 41.9399 252.715 41.9753 252.566 42.0392C252.417 42.1129 252.295 42.231 252.216 42.3771C252.127 42.5361 252.081 42.716 252.083 42.8985C252.082 43.1211 252.15 43.3386 252.279 43.52C252.347 43.6188 252.429 43.7074 252.522 43.783C252.673 43.8955 252.831 43.9986 252.995 44.0916L253.036 44.1167V41.9349ZM253.224 47.6025C253.332 47.5935 253.438 47.571 253.541 47.5356C253.624 47.5035 253.701 47.4584 253.769 47.4019C253.898 47.2919 253.998 47.152 254.061 46.9944C254.133 46.8203 254.17 46.6334 254.169 46.4447C254.152 46.1419 254.056 45.8489 253.891 45.595C253.725 45.3411 253.495 45.1354 253.224 44.9986V47.6025Z" fill="white"/>
<path d="M181.949 249.319H0.476306C0.349981 249.319 0.228831 249.269 0.139506 249.18C0.0501817 249.09 0 248.969 0 248.843C0 248.717 0.0501817 248.596 0.139506 248.506C0.228831 248.417 0.349981 248.367 0.476306 248.367H181.949C182.075 248.367 182.196 248.417 182.286 248.506C182.375 248.596 182.425 248.717 182.425 248.843C182.425 248.969 182.375 249.09 182.286 249.18C182.196 249.269 182.075 249.319 181.949 249.319Z" fill="#CACACA"/>
</g>
<defs>
<clipPath id="clip0">
<rect width="400" height="249.319" fill="white"/>
</clipPath>
</defs>
</svg>
